<svg width="583" height="168" viewBox="0 0 583 168" fill="none" xmlns="http://www.w3.org/2000/svg">
<path d="M64.9353 3.17194L92.8245 165.485H61.0773L58.0327 137.073H34.3037L31.2591 165.485H0L27.4244 3.17194H64.9353ZM46.0171 36.3415L37.8363 105.218H54.5001L46.3193 36.3415H45.9939H46.0171Z" fill="black"/>
<path d="M142.397 46.1292C142.397 41.2807 141.7 37.1571 140.306 33.736C138.911 30.3374 136.773 28.6155 133.891 28.6155C130.684 28.6155 128.337 30.0882 126.826 33.0563C125.339 36.0016 124.572 39.3095 124.572 42.9573C124.572 48.2589 125.78 52.4731 128.174 55.5771C130.591 58.6811 133.589 61.3772 137.238 63.6429C140.864 65.9086 144.768 68.2196 148.951 70.5759C153.112 72.9322 157.016 75.9908 160.665 79.7745C164.29 83.5582 167.312 88.52 169.729 94.66C172.146 100.8 173.331 108.798 173.331 118.654C173.331 135.941 169.845 148.47 162.919 156.286C155.97 164.103 145.93 168 132.776 168C126.57 168 121.086 167.275 116.344 165.848C111.58 164.42 107.583 161.905 104.329 158.348C101.075 154.791 98.5882 150.124 96.8684 144.369C95.1486 138.614 94.3119 131.5 94.3119 123.004V117.317H123.177V121.191C123.177 128.169 124.084 133.063 125.896 135.85C127.709 138.659 130.057 140.064 132.962 140.064C136.053 140.064 138.447 138.546 140.097 135.51C141.747 132.474 142.583 128.758 142.583 124.363C142.583 119.061 141.445 114.847 139.144 111.743C136.843 108.639 133.961 105.988 130.475 103.791C126.989 101.593 123.224 99.35 119.18 97.0843C115.113 94.8186 111.348 91.8506 107.885 88.2255C104.398 84.5778 101.517 79.8198 99.2157 73.9064C96.9149 67.993 95.7761 60.267 95.7761 50.7285C95.7761 34.2117 98.8671 21.6372 105.072 12.9824C111.278 4.35012 120.667 0.0226746 133.287 0.0226746C145.907 0.0226746 155.761 4.01027 161.595 11.9628C167.428 19.9153 170.333 32.6258 170.333 50.0488H142.444V46.1745L142.397 46.1292Z" fill="black"/>
<path d="M212.609 3.17194V65.4554H212.934L235.059 3.17194H266.806L237.941 74.1103L270.339 165.508H236.338L218.86 108.911L212.609 122.55V165.508H182.79V3.17194H212.609Z" fill="black"/>
<path d="M350.032 77.2823V165.485H329.836L329.185 151.166H328.86C327.907 154.655 326.536 157.533 324.769 159.798C323.003 162.064 321.028 163.786 318.843 164.919C316.658 166.052 314.288 166.844 311.778 167.298C309.268 167.751 306.734 167.977 304.155 167.977C296.555 167.977 290.582 166.187 286.189 162.63C281.797 159.073 278.497 153.726 276.242 146.612C273.988 139.498 272.57 130.707 271.989 120.24C271.408 109.772 271.106 97.8093 271.106 84.3285C271.106 70.8477 271.664 58.6357 272.779 48.191C273.895 37.7235 276.033 28.9554 279.194 21.8185C282.355 14.7042 286.701 9.28928 292.255 5.57357C297.81 1.85786 304.968 0 313.753 0C318.982 0 323.817 0.996898 328.256 2.94538C332.695 4.91652 336.506 8.08847 339.713 12.4839C342.921 16.8793 345.431 22.5208 347.243 29.4311C349.056 36.3188 349.963 44.7018 349.963 54.5575H321.097C321.097 45.9253 320.563 39.6267 319.494 35.6844C318.425 30.9945 316.124 28.6382 312.591 28.6382C310.128 28.6382 308.175 29.4765 306.734 31.1304C305.294 32.807 304.224 35.7524 303.527 39.9892C302.83 44.226 302.365 49.9582 302.156 57.163C301.947 64.3679 301.831 73.408 301.831 84.3285C301.831 95.2491 301.947 104.289 302.156 111.494C302.365 118.699 302.83 124.408 303.527 128.668C304.224 132.905 305.224 135.873 306.572 137.527C307.896 139.203 309.709 140.019 311.94 140.019C313.544 140.019 314.962 139.566 316.194 138.659C317.425 137.753 318.471 136.054 319.331 133.539C320.191 131.047 320.865 127.558 321.33 123.072C321.818 118.608 322.05 112.876 322.05 105.898H311.476V77.2596H349.963L350.032 77.2823Z" fill="black"/>
<path d="M390.913 3.17194V165.485H361.095V3.17194H390.913Z" fill="black"/>
<path d="M437.256 3.17194L456.499 103.202H456.825V3.17194H484.714V165.485H452.014L432.12 65.2288H431.794V165.485H403.905V3.17194H437.256Z" fill="black"/>
<path d="M555.111 3.17194L583 165.485H551.253L548.208 137.073H524.479L521.435 165.485H490.176L517.577 3.17194H555.088H555.111ZM536.193 36.3415L528.012 105.218H544.699L536.518 36.3415H536.193Z" fill="black"/>
</svg>
